<?xml version="1.0" encoding="utf-8"?>
<!-- Generator: Adobe Illustrator 24.3.0, SVG Export Plug-In . SVG Version: 6.00 Build 0)  -->
<svg version="1.1" id="Working" xmlns="http://www.w3.org/2000/svg" xmlns:xlink="http://www.w3.org/1999/xlink" x="0px" y="0px"
	 viewBox="0 0 500 500" style="enable-background:new 0 0 500 500;" xml:space="preserve">
<style type="text/css">
	.st0{opacity:0.9;fill:url(#SVGID_1_);}
	.st1{opacity:0.2;fill:#131414;}
	.st2{fill:#E2BDA3;}
	.st3{fill:#FDD2A0;}
	.st4{fill:#F2C18F;}
	.st5{fill:#F9F1DE;}
	.st6{fill:#E8E1D1;}
	.st7{fill:#333333;}
	.st8{fill:#424141;}
	.st9{fill:#A82F26;}
	.st10{fill:#BC3F31;}
	.st11{fill:#FFC397;}
	.st12{opacity:0.1;}
	.st13{fill:#111111;}
	.st14{fill:#E1B88C;}
	.st15{opacity:0.3;fill:#FFFFFF;}
	.st16{fill:#A3564B;}
	.st17{fill:#FFFFFF;}
	.st18{fill:#242525;}
	.st19{fill:#FF9999;}
	.st20{fill:#C04949;}
	.st21{fill-rule:evenodd;clip-rule:evenodd;fill:#1C1C1C;}
	.st22{opacity:0.6;fill-rule:evenodd;clip-rule:evenodd;fill:#FFFFFF;}
	.st23{opacity:0.4;fill-rule:evenodd;clip-rule:evenodd;fill:#FFFFFF;}
	.st24{fill:#987650;}
	.st25{fill:#C0C0C0;}
	.st26{fill:#E6E7E8;}
	.st27{fill:#CDD0D1;}
	.st28{fill:#CDD0D2;}
	.st29{fill:#DDDDDD;}
	.st30{fill:#F2F2F2;}
	.st31{opacity:0.1;fill:#131414;}
	.st32{fill:#C68106;}
	.st33{fill:#F9D41E;}
	.st34{fill:#DD9910;}
	.st35{fill:#99992B;}
	.st36{fill:#E5E541;}
	.st37{fill:#A2A534;}
	.st38{fill:#D85B05;}
	.st39{fill:#F27708;}
	.st40{fill:#F46606;}
	.st41{fill:#B20909;}
	.st42{fill:#F92D2D;}
	.st43{fill:#CC0D0D;}
	.st44{fill:#9727D8;}
	.st45{fill:#E8BD07;}
	.st46{fill:#1CA9E3;}
	.st47{fill:#C04BF7;}
	.st48{fill:#D62929;}
	.st49{fill:#F93838;}
	.st50{fill:#F99E53;}
	.st51{fill:#EF8229;}
	.st52{fill:#F9A262;}
	.st53{fill:#1D93DB;}
	.st54{fill:#9F36DD;}
	.st55{fill:#2BA1F9;}
	.st56{fill:#FE505A;}
	.st57{fill:#C6C124;}
	.st58{fill:#F4EF40;}
	.st59{fill:#872BC9;}
	.st60{fill:#D36A1C;}
</style>
<g>
	<linearGradient id="SVGID_1_" gradientUnits="userSpaceOnUse" x1="300.9364" y1="261.2486" x2="183.13" y2="557.6339">
		<stop  offset="0" style="stop-color:#FFDA00"/>
		<stop  offset="0.4441" style="stop-color:#FFB614"/>
		<stop  offset="1" style="stop-color:#FF6143"/>
	</linearGradient>
	<path class="st0" d="M57.72,500H435.4c0,0,58-42.02-5.07-120.86c-14.56-18.2-28.5-38.35-27.31-60.28
		c1.78-32.85-21.23-68.3-59.79-72.85c-12.37-1.46-24.85,1.46-36.66,5.12c-25.99,8.05-50.33-5.28-73.88-14.73
		c-45.7-18.34-111.85-37.11-152.3,2.54c-12.12,11.88-23.02,31.32-27.07,47.74c-6.18,25.08,1.58,52.32,8.16,70.7
		c5.97,16.69,6.14,33.72-1.5,49.93c-7.37,15.64-23.03,28.17-27.01,45.06c-2.94,12.47-1.54,23.51,6.38,33.12
		C43.68,490.75,52.7,495.59,57.72,500z"/>
	<g>
		<path class="st1" d="M404.27,397.31h-15.94c2.26-1.42,4.13-3.85,5.61-7.09c3.27-7.2,1.55-24.87-14.11-61.6
			c-5.17-12.11-12.43-18.71-18.89-22.33c-3.89-3.25-9.77-5.34-16.16-5.34c-6.84,0-13.69,0-20.53,0
			c-7.48-6.31-14.93-12.6-22.21-18.87c-0.05-0.17-0.1-0.32-0.14-0.47c-0.38-5.27-0.8-10.53-1.26-15.77c0,0,0,0-0.01,0.01
			c-0.09-1.33-0.18-2.66-0.28-3.99h0c-0.03-0.34-0.05-0.68-0.08-1.02c-0.15-2.09-0.31-4.18-0.47-6.26
			c-0.07-0.88-0.15-1.76-0.22-2.64c7.81-6.97,13.41-15.04,14.21-19.82c1.66-13.06,2.64-17.62,3.81-24.62
			c0.59,1.28,1.39,2.39,2.44,3.2c6.56,5.08,13.19-11.18,11.49-20.1c-1.37-7.2-5.7-5.88-10.85-3.3c2.92-12.74,7.12-24.69,4.62-37.69
			c2.91-3.18,4.57-7.42,4.5-12.96c-0.36-31.92-23.4-35.27-41.65-20.05c-4.35-0.61-8.92-0.94-13.64-0.94
			c-18.08,0-34.02,4.75-43.51,11.97c-5.47,5.04-9.56,11.65-11.54,18.9c-4,14.61,1.51,29.87,4.66,44.05
			c-4.76-2.27-8.67-3.04-9.97,3.74c-1.7,8.92,4.93,25.18,11.49,20.1c1.41-1.09,2.36-2.72,2.99-4.58c0.29,2.15,0.52,4.08,0.63,5.67
			c0.83,12.1,0.77,4.28,2.02,16.34c0.67,6.43,8.57,15.1,17.64,22.01c-0.02,0.27-0.05,0.53-0.07,0.8H62.44
			c-2.25,0-3.91,1.6-3.71,3.57l0.23,2.38c0-0.05,0-0.1,0-0.14l10.71,102.5c0.22,1.97,2.13,3.57,4.28,3.57H147l0.16,20.98h-23.71
			c-2.53,0-4.57,2.05-4.57,4.57v5.24h-9.4v16.63h8.04v5.22V500h281.43v-80.84v-5.22h5.33V397.31z M225.73,191.2
			c0.01,0.06,0.02,0.11,0.03,0.17c-0.53-0.27-1.05-0.53-1.56-0.78C224.39,190.65,224.97,190.85,225.73,191.2z M176.99,366.51
			c-0.88,7.03-1.41,14.03-1.23,20.98h-1.3l-0.16-20.98H176.99z"/>
		<g>
			<g>
				<g>
					<path class="st2" d="M370.33,406.08c8.81-30.33-6.46-61.17-7.85-92.42c-0.35-7.61-9.9-13.77-20.87-13.77
						c-46.61,0-93.21,0-139.82,0c-10.97,0-20.51,6.16-20.87,13.77c-1.39,31.25-14.09,63.11-5.28,93.45
						C228.74,407.11,317.24,406.08,370.33,406.08z"/>
					<g>
						<path class="st3" d="M317.46,299.89c-14.4-0.02-19.11-20.86-19.14-20.83c-0.57-11.05-1.33-22.02-2.29-32.85
							c-16.56,0-33.12,0-49.69,0c-1,10.83-1.8,21.8-2.38,32.85c-0.04-0.02-4.78,20.81-19.18,20.83c-0.09,1.82-0.17,3.64-0.24,5.46
							c6.14,0,12.27,0,18.41,0c-0.02,0.78-0.04,1.55-0.05,2.33c18.81,0,37.62,0,56.43,0c-0.01-0.77-0.03-1.55-0.05-2.33
							c6.13,0,12.27,0,18.41,0C317.62,303.54,317.54,301.71,317.46,299.89z"/>
					</g>
					<path class="st4" d="M258.8,276.79c14.33-2.78,27.33-8.37,38.39-15.99c-0.35-4.89-0.74-9.76-1.16-14.59
						c-16.56,0-33.12,0-49.69,0c-0.99,10.67-1.77,21.48-2.36,32.37C248.88,278.33,253.83,277.75,258.8,276.79z"/>
					<path class="st5" d="M297.9,273.45c-8.62,5.19-17.59,10.39-26.77,15.61c-9.21-6.07-18.17-12.13-26.7-18.15
						c-0.17,2.71-0.33,5.43-0.47,8.15c-0.04-0.02-4.78,20.81-19.18,20.83c-7.66,0-15.33,0-22.99,0c-10.97,0-20.51,6.16-20.87,13.77
						c-1.39,31.25-14.09,63.11-5.28,93.45c53.1,0,141.59-1.02,194.69-1.02c8.81-30.33-6.46-61.17-7.85-92.42
						c-0.35-7.61-9.9-13.77-20.87-13.77c-8.05,0-16.1,0-24.15,0c-14.4-0.02-19.11-20.86-19.14-20.83c-0.09-1.87-0.2-3.74-0.3-5.61
						C297.97,273.45,297.93,273.45,297.9,273.45z"/>
					<g>
						<path class="st6" d="M244.83,264.79c-0.58,6.34-1.1,12.72-1.56,19.12c4.1,7.71,8.49,15.46,13,23.23
							c5.01-6.04,9.99-12.07,14.85-18.08C261.92,280.93,253.04,272.83,244.83,264.79z"/>
						<path class="st6" d="M297.47,264.79c0.56,6.34,1.07,12.72,1.51,19.12c-3.96,7.69-8.19,15.42-12.55,23.16
							c-5.17-6.01-10.31-12.02-15.31-18.01C280.35,280.93,289.24,272.83,297.47,264.79z"/>
					</g>
					<path class="st7" d="M362.48,313.66c-0.35-7.61-9.9-13.77-20.87-13.77c-8.05,0-16.1,0-24.15,0c-5.62,0-9.76-3.18-12.72-7.06
						c-9.7,34.54-23.26,69.64-33.57,103.57c-11.31-32.87-25.95-66.83-36.68-100.31c-2.59,2.25-5.79,3.8-9.71,3.8
						c-7.66,0-15.33,0-22.99,0c-10.97,0-20.51,6.16-20.87,13.77c-1.39,31.25-14.09,63.11-5.28,93.45c53.1,0,141.59-1.02,194.69-1.02
						C379.14,375.75,363.87,344.91,362.48,313.66z"/>
					<path class="st7" d="M376.67,327.56c-11.54-27.07-33.62-26.69-33.62-26.69c-2.26,16.9,3.47,43.95,10.62,64.26
						c-31.23,4.16-70.36,12.79-70.36,12.79l-4.34,16.75c48.95,17.09,86.43,7.31,99.23,2.82c5.59,1.03,9.78-2.21,12.57-8.35
						C394.05,381.96,392.33,364.29,376.67,327.56z"/>
					<path class="st8" d="M321.08,299.89c-7.51-6.34-15-12.66-22.31-18.96c-7.83,37.62-19.99,76.16-28.98,113.33
						c0.75,1.59,1.48,3.19,2.21,4.77c12.33-18.05,26.79-36.44,40.95-54.92c-3.2-5.71-6.51-11.42-9.88-17.13
						c5.29,1.42,10.58,2.84,15.85,4.27C319.95,320.79,320.69,310.32,321.08,299.89z"/>
					<path class="st8" d="M275.4,406.66c-9.27-40.96-23.36-83.9-31.97-125.73c-7.33,6.3-14.82,12.62-22.34,18.96
						c0.38,10.43,1.12,20.9,2.15,31.37c5.27-1.42,10.56-2.85,15.85-4.27c-3.37,5.71-6.68,11.43-9.87,17.13
						C245.38,365.21,261.98,386.18,275.4,406.66z"/>
				</g>
				<polygon class="st9" points="271.35,289.29 263.88,297.41 268.48,306.04 274.21,306.04 278.82,297.41 				"/>
				<polygon class="st10" points="274.21,306.04 268.48,306.04 262.64,356.87 270.88,389.01 280.06,356.87 				"/>
				<g>
					<g>
						<path class="st3" d="M225.65,191.9c-6.71-3.43-12.95-7.57-14.65,1.34c-1.7,8.92,4.93,25.18,11.49,20.1
							C229.05,208.27,225.65,191.9,225.65,191.9z"/>
						<path class="st11" d="M216.38,197.22c-1.34,5.08,2.62,14.12,7.06,11.1c4.45-3.03,2.61-12.19,2.61-12.19
							C221.71,194.34,217.72,192.15,216.38,197.22z"/>
					</g>
					<g>
						<path class="st3" d="M313.73,188.19c6.71-3.43,12.95-7.57,14.65,1.34c1.7,8.92-4.93,25.18-11.49,20.1
							C310.33,204.56,313.73,188.19,313.73,188.19z"/>
						<path class="st11" d="M322.99,193.51c1.34,5.08-2.62,14.12-7.06,11.1c-4.46-3.03-2.61-12.19-2.61-12.19
							C317.66,190.63,321.66,188.44,322.99,193.51z"/>
					</g>
					<g>
						<g>
							<path class="st3" d="M228.13,230.78c-1.25-12.05-1.19-4.24-2.02-16.34c-0.99-14.51-11.07-55.08-3.93-67.65
								c22.62-39.81,73.56-31.08,94.2-1.8c9.01,12.77,1.73,34.98,0.36,45.76c-2.58,20.27-3.52,20.04-6.09,40.31
								c-1.64,9.76-23.25,33.23-42.87,33.07C255.45,262.33,229.37,242.7,228.13,230.78z"/>
						</g>
						<g class="st12">
							<g>
								<g>
									<path class="st13" d="M318.08,187.94c0.01-0.07,0.03-0.14,0.04-0.2c-0.08,0.06-0.17,0.14-0.25,0.2H318.08z"/>
									<path class="st13" d="M312.34,170.6c-0.08,5.78-0.63,12.28-1.06,17.34h1.76c0.43-5.23,1.3-13.72,1.41-21.05
										c0.08-5.61-0.29-10.53-1.66-12.8c-19,4.93-49.76-1.93-67.75-8.16c-0.38,0.11-0.76,0.23-1.13,0.35
										c0.05-0.12,0.1-0.24,0.15-0.37c-0.63,0.34-1.29,0.67-1.96,0.99c-10.7,5.09-16.31,7.36-16.13,19.99
										c0.01,0.71,0.03,1.43,0.05,2.16c0.29-11.28,5.73-13.57,15.72-18.45c0.66-0.32,1.3-0.65,1.91-0.99
										c-0.05,0.13-0.1,0.25-0.15,0.37c0.36-0.12,0.73-0.23,1.11-0.35c17.55,6.23,47.56,13.09,66.1,8.16
										C312.06,160.07,312.42,164.99,312.34,170.6z"/>
								</g>
							</g>
						</g>
					</g>
					<g>
						<path class="st14" d="M258.41,214.76c0.27,13.01,22.91,12.45,20.75-0.82L258.41,214.76z"/>
						<path class="st3" d="M258.41,214.68c3.21,10,20.65,10.68,20.76-2.45L258.41,214.68z"/>
						<path class="st15" d="M268.09,213.85c-0.01,1.2,1.54,2.17,3.46,2.19c1.92,0.01,3.48-0.93,3.5-2.13
							c0.01-1.2-1.54-2.18-3.46-2.2C269.67,211.69,268.11,212.65,268.09,213.85z"/>
					</g>
					<g>
						<path class="st16" d="M258.19,165.49c-7.58-3.17-15.42-0.43-19.16,4.89c-0.32,0.62,0.1,1.28,0.87,1.6
							c0.84,0.34,1.71,0.27,2.08-0.19c3.6-3.71,10.12-4.87,15.57-1.22c0.64,0.36,1.44,0.04,1.72-0.87c0.16-0.54,0.3-1.09,0.41-1.65
							C259.91,167.04,259.16,165.76,258.19,165.49z"/>
						<path class="st16" d="M298.42,169.99c-3.75-5.32-11.58-8.06-19.16-4.89c-0.97,0.27-1.71,1.55-1.48,2.56
							c0.12,0.56,0.25,1.12,0.41,1.65c0.28,0.91,1.08,1.22,1.72,0.87c5.45-3.65,11.97-2.49,15.57,1.22
							c0.37,0.46,1.25,0.52,2.08,0.19C298.31,171.28,298.74,170.61,298.42,169.99z"/>
					</g>
					<g>
						<path class="st17" d="M248.98,182.86c-8.43,2.01-8.36,13.98,0.74,14.18C258.82,197.24,258.79,180.52,248.98,182.86z"/>
						<path class="st18" d="M253.35,189.92c-0.11,2.47-1.79,4.4-3.74,4.31c-1.96-0.09-3.45-2.16-3.33-4.63
							c0.11-2.47,1.79-4.4,3.74-4.31C251.98,185.38,253.47,187.46,253.35,189.92z"/>
						<path class="st17" d="M250.23,187.54c-0.05,1.17-1.04,2.07-2.21,2.01c-1.16-0.05-2.07-1.04-2.02-2.21
							c0.05-1.16,1.04-2.07,2.21-2.02C249.38,185.39,250.28,186.38,250.23,187.54z"/>
						<path class="st17" d="M251.78,191.72c-0.02,0.45-0.4,0.79-0.84,0.77c-0.44-0.02-0.79-0.4-0.77-0.84
							c0.02-0.45,0.4-0.79,0.84-0.77C251.46,190.9,251.8,191.27,251.78,191.72z"/>
					</g>
					<g>
						<path class="st17" d="M288.04,182.68c-9.81-2.34-9.84,14.38-0.74,14.18C296.4,196.66,296.47,184.69,288.04,182.68z"/>
						<path class="st18" d="M283.66,189.75c0.11,2.47,1.79,4.4,3.74,4.31c1.96-0.09,3.45-2.16,3.33-4.63
							c-0.11-2.47-1.79-4.4-3.74-4.31C285.04,185.21,283.55,187.28,283.66,189.75z"/>
						<path class="st17" d="M286.79,187.37c0.05,1.16,1.04,2.07,2.2,2.01c1.17-0.05,2.07-1.04,2.02-2.21
							c-0.05-1.17-1.04-2.07-2.21-2.01C287.63,185.21,286.73,186.2,286.79,187.37z"/>
						<path class="st17" d="M285.23,191.54c0.02,0.45,0.4,0.79,0.84,0.77c0.45-0.02,0.79-0.4,0.77-0.84
							c-0.02-0.44-0.4-0.79-0.84-0.77C285.56,190.72,285.21,191.1,285.23,191.54z"/>
					</g>
					<g>
						<g>
							<path class="st17" d="M269.14,235.66c7.48-0.44,12.7-1.25,15.53-6.62c-5.65,0.6-11.35,1.18-16.93,1.6
								c-4.93,0.2-9.57-0.37-14.37-0.79C256.7,234.91,262.51,235.9,269.14,235.66z"/>
						</g>
						<g>
							<path class="st19" d="M256.3,243.43c4.18,2.4,9.29,3.05,14.03,2.63c4.57-0.4,9.28-1.78,13.14-4.34
								C274.83,237.28,264.7,238.87,256.3,243.43z"/>
						</g>
						<g>
							<path class="st20" d="M289.55,235.11c0.24-0.52,1.81-6.79,1.08-6.71c-1.96,0.22-3.97,0.42-5.96,0.64
								c-2.83,5.37-8.05,6.18-15.53,6.62c-6.63,0.24-12.44-0.75-15.77-5.81c-1.72-0.15-3.47-0.28-5.25-0.35
								c0,1.4,1.72,6.99,2.12,7.71c1.28,2.27,2.86,4.15,5.03,5.61c0.33,0.22,0.67,0.41,1.02,0.6c8.4-4.56,18.53-6.15,27.17-1.71
								c0.53-0.35,1.04-0.71,1.53-1.11C286.87,239.12,288.52,237.29,289.55,235.11z"/>
						</g>
					</g>
					<path class="st16" d="M326.65,135.57c-0.36-31.92-23.39-35.27-41.65-20.05c-4.35-0.61-8.92-0.94-13.64-0.94
						c-18.08,0-34.02,4.74-43.51,11.97c-5.47,5.04-9.56,11.65-11.54,18.9c-4,14.61,1.51,29.88,4.66,44.06c0,0,4.18,1.23,6,4.16
						c1.17,1.88-1.09-13.61-1.27-25.85c-0.18-12.63,5.29-14.9,15.73-19.99c0.66-0.32,1.3-0.65,1.92-0.99
						c-0.05,0.13-0.1,0.25-0.15,0.37c0.36-0.12,0.74-0.23,1.11-0.35c17.55,6.23,47.56,13.09,66.1,8.16c1.33,2.27,1.7,7.19,1.62,12.8
						c-0.17,12.24-2.44,27.73-1.27,25.85c1.82-2.92,6.49-6.28,6.49-6.28c2.93-13.18,7.47-25.46,4.89-38.86
						C325.05,145.36,326.71,141.12,326.65,135.57z"/>
					<g>
						<path class="st21" d="M244.6,176.24c5.37-0.25,10.62,0.66,15.87,1.59c5.72,1.01,11.43,0.79,17.09-0.37
							c7.19-1.46,14.41-1.5,21.65-0.62c3.89,0.47,7.75,1.13,11.61,1.81c2.04,0.36,2.13,0.46,2.29,2.57
							c0.18,2.46,0.17,4.95,0.18,7.42c0,0.47-0.22,1.16-0.56,1.36c-0.91,0.54-0.98,1.39-1.24,2.24c-1.08,3.57-2.05,7.18-3.33,10.67
							c-1.52,4.17-4.89,6.09-9.14,6.48c-4.92,0.46-9.83,0.43-14.66-0.85c-3.37-0.89-6-2.63-7.84-5.7c-2.65-4.4-4.27-9.16-5.52-14.09
							c-0.2-0.79-0.42-1.57-0.68-2.34c-0.45-1.33-0.82-1.53-2.42-1.57c-1.15-0.02-2.01,0.28-2.36,1.52
							c-0.81,2.88-1.48,5.82-2.55,8.61c-1.08,2.81-2.54,5.49-3.91,8.18c-1.51,2.95-4.15,4.44-7.21,5.28
							c-5.37,1.47-10.84,1.59-16.29,0.75c-3.7-0.57-6.57-2.6-7.86-6.24c-1.28-3.61-2.26-7.34-3.43-10.99
							c-0.21-0.65-0.72-1.2-1.05-1.81c-0.27-0.5-0.67-1.04-0.66-1.57c0.03-2.74,0.17-5.47,0.28-8.2c0.04-0.91,0.51-1.41,1.41-1.55
							c4.56-0.71,9.11-1.49,13.69-2.12C240.15,176.41,242.39,176.39,244.6,176.24z M246.03,180.05c-1.38,0.07-3.53,0.09-5.66,0.29
							c-3.06,0.29-6.11,0.72-8.9,2.13c-1.24,0.63-2.37,1.44-2.69,2.91c-1.29,6.07-0.71,11.91,2.16,17.46
							c0.96,1.85,2.44,3.02,4.51,3.43c4.84,0.96,9.68,1.08,14.53,0.06c3.31-0.7,5.78-2.44,7.54-5.34c2.25-3.72,3.79-7.7,4.51-11.96
							c0.73-4.34-0.34-6-4.52-7.41C254.04,180.44,250.42,180.27,246.03,180.05z M294.1,207.05c1.27-0.11,2.78-0.27,4.29-0.38
							c3.67-0.25,6.06-2.1,7.41-5.54c1.62-4.15,2.22-8.42,1.78-12.83c-0.19-1.92-0.19-4.05-2.14-5.21
							c-1.13-0.68-2.36-1.26-3.62-1.62c-4.66-1.32-9.45-1.55-14.26-1.32c-3.5,0.17-6.98,0.52-10.29,1.9
							c-2.72,1.13-3.82,2.47-3.55,5.39c0.52,5.72,2.55,10.9,6.06,15.48c1.1,1.43,2.56,2.32,4.25,2.88
							C287.21,206.85,290.51,207.13,294.1,207.05z"/>
						<path class="st22" d="M253.24,180.63c-2.22-0.33-4.57-0.44-7.21-0.58c-1.38,0.07-3.53,0.09-5.66,0.29
							c-3.06,0.29-6.11,0.72-8.9,2.13c-1.24,0.63-2.37,1.44-2.69,2.91c-1.29,6.07-0.71,11.91,2.16,17.46
							c0.96,1.85,2.44,3.02,4.51,3.43c0.23,0.05,0.47,0.09,0.71,0.13c0.05-2.58,0.25-5.18,0.58-7.78
							C237.87,189.43,244.88,183.09,253.24,180.63z"/>
						<path class="st23" d="M257.52,181.62c-1.39-0.47-2.8-0.78-4.28-1c-8.36,2.47-15.37,8.8-16.5,18c-0.33,2.6-0.53,5.2-0.58,7.78
							c4.61,0.83,9.21,0.9,13.83-0.07c3.31-0.7,5.78-2.44,7.54-5.34c2.25-3.72,3.79-7.7,4.51-11.96
							C262.77,184.69,261.7,183.04,257.52,181.62z"/>
						<path class="st23" d="M307.57,188.3c-0.19-1.92-0.19-4.05-2.14-5.21c-1.13-0.68-2.36-1.26-3.62-1.62
							c-1.08-0.31-2.18-0.55-3.28-0.75c-5.58,1.22-10.51,5.15-13.92,9.84c-2.74,3.76-4.26,7.83-5.07,12.06
							c0.07,0.1,0.15,0.2,0.22,0.3c1.1,1.43,2.56,2.32,4.25,2.88c3.2,1.07,6.5,1.34,10.09,1.26c1.27-0.11,2.78-0.27,4.29-0.38
							c3.67-0.25,6.06-2.1,7.41-5.54C307.41,196.97,308.01,192.71,307.57,188.3z"/>
						<path class="st22" d="M298.53,180.71c-3.62-0.65-7.3-0.75-10.99-0.57c-3.5,0.17-6.98,0.52-10.29,1.9
							c-2.72,1.13-3.82,2.47-3.55,5.39c0.51,5.6,2.47,10.68,5.84,15.18c0.81-4.22,2.33-8.29,5.07-12.06
							C288.02,185.86,292.95,181.94,298.53,180.71z"/>
					</g>
				</g>
			</g>
			<g>
				<g>
					<g>
						<rect x="114.35" y="411.55" class="st24" width="281.43" height="87.39"/>
						<rect x="114.35" y="411.55" class="st25" width="281.43" height="6.55"/>
						<rect x="106.31" y="396.26" class="st24" width="294.8" height="16.63"/>
					</g>
				</g>
				<g>
					<g>
						<path class="st26" d="M250.94,253.58H59.28c-2.25,0-3.91,1.6-3.72,3.57l10.95,104.74c0.22,1.97,2.13,3.57,4.28,3.57h182.87
							c2.14,0,3.85-1.6,3.82-3.57l-2.38-104.74C255.05,255.18,253.18,253.58,250.94,253.58z"/>
						<path class="st27" d="M250.94,253.58H59.28c-2.25,0-3.91,1.6-3.72,3.57l0.23,2.38c-0.19-1.97,1.47-3.57,3.72-3.57h191.5
							c2.25,0,4.11,1.6,4.17,3.57l-0.07-2.38C255.05,255.18,253.18,253.58,250.94,253.58z"/>
					</g>
					<path class="st17" d="M166.24,308.3c0,5.51-4.46,9.97-9.97,9.97c-5.5,0-9.96-4.46-9.96-9.97c0-5.5,4.46-9.97,9.96-9.97
						C161.78,298.33,166.24,302.79,166.24,308.3z"/>
					<path class="st28" d="M195.74,386.44H171.3l-0.35-47.29h-27.3l0.35,47.29h-23.71c-2.53,0-4.57,2.05-4.57,4.57v5.33h84.6v-5.33
						C200.31,388.49,198.26,386.44,195.74,386.44z"/>
					<path class="st29" d="M181.14,342.07c0,2.85-2.31,5.16-5.16,5.16H137.6c-2.85,0-5.16-2.31-5.16-5.16l0,0
						c0-2.85,2.31-5.16,5.16-5.16h38.38C178.83,336.91,181.14,339.22,181.14,342.07L181.14,342.07z"/>
					<path class="st30" d="M137.91,338.77h38.38c2.24,0,4.12,1.43,4.84,3.42c0-0.04,0.01-0.08,0.01-0.12c0-2.85-2.31-5.16-5.16-5.16
						H137.6c-2.85,0-5.16,2.31-5.16,5.16c0,0.61,0.12,1.19,0.32,1.74C132.83,341.02,135.1,338.77,137.91,338.77z"/>
				</g>
			</g>
		</g>
	</g>
	<g>
		<polygon class="st31" points="429.85,303.82 419.16,332.83 423.44,335.21 424.66,334.51 424.42,352.34 428.7,354.72 439.81,348.3 
			440.11,325.58 445.67,322.38 434.13,306.19 		"/>
		<g>
			<polygon class="st32" points="423.67,351.76 427.95,354.13 428.25,331.42 423.97,329.04 			"/>
			<polygon class="st33" points="444.92,321.79 433.38,305.61 422.69,334.62 428.25,331.42 427.95,354.13 439.06,347.72 439.36,325 
							"/>
			<polygon class="st34" points="433.38,305.61 429.1,303.23 418.41,332.25 422.69,334.62 			"/>
		</g>
	</g>
	<g>
		<polygon class="st31" points="342.24,170.19 342.43,196.38 346.21,198.48 356.02,192.81 355.81,162.36 360.71,159.53 
			350.52,145.24 346.74,143.14 337.3,168.76 341.08,170.86 		"/>
		<g>
			<polygon class="st35" points="341.77,195.86 345.54,197.96 345.33,167.51 341.55,165.41 			"/>
			<polygon class="st36" points="360.05,159.01 349.86,144.72 340.42,170.35 345.33,167.51 345.54,197.96 355.36,192.29 
				355.14,161.85 			"/>
			<polygon class="st37" points="349.86,144.72 346.08,142.62 336.64,168.25 340.42,170.35 			"/>
		</g>
	</g>
	<g>
		<polygon class="st31" points="413.46,298.77 424.57,292.35 425.17,263.38 430.73,260.17 419.19,243.98 414.91,241.61 
			404.22,270.62 408.5,273 409.68,272.32 409.18,296.39 		"/>
		<g>
			<polygon class="st38" points="408.43,295.81 412.71,298.18 413.31,269.21 409.03,266.83 			"/>
			<polygon class="st39" points="429.98,259.58 418.44,243.4 407.75,272.42 413.31,269.21 412.71,298.18 423.82,291.77 
				424.42,262.79 			"/>
			<polygon class="st40" points="418.44,243.4 414.16,241.02 403.47,270.04 407.75,272.42 			"/>
		</g>
	</g>
	<g>
		<polygon class="st31" points="139.22,200.05 139.17,218.16 143.45,220.53 154.56,214.12 154.63,191.15 160.19,187.95 
			148.64,171.76 144.37,169.39 133.68,198.4 137.96,200.78 		"/>
		<g>
			<polygon class="st35" points="138.42,217.57 142.7,219.95 142.76,196.99 138.49,194.61 			"/>
			<polygon class="st36" points="159.44,187.36 147.89,171.18 137.21,200.2 142.76,196.99 142.7,219.95 153.81,213.53 
				153.88,190.57 			"/>
			<polygon class="st37" points="147.89,171.18 143.62,168.8 132.93,197.82 137.21,200.2 			"/>
		</g>
	</g>
	<g>
		<polygon class="st31" points="117.15,200.1 106.47,229.11 110.74,231.49 111.96,230.79 111.72,248.62 116,251 127.11,244.58 
			127.42,221.87 132.97,218.66 121.43,202.48 		"/>
		<g>
			<polygon class="st41" points="110.97,248.04 115.25,250.42 115.55,227.7 111.27,225.32 			"/>
			<polygon class="st42" points="132.22,218.07 120.68,201.89 109.99,230.91 115.55,227.7 115.25,250.42 126.36,244 126.67,221.28 
							"/>
			<polygon class="st43" points="120.68,201.89 116.4,199.52 105.72,228.53 109.99,230.91 			"/>
		</g>
	</g>
	<g>
		<path class="st31" d="M389.52,238.87c5.63-2.63,8.68-6.36,8.96-10.11v-16.19c0.22-3.05-1.38-6.11-4.95-8.61
			c-4.62-3.23-11.5-4.81-18.45-4.65c-5.06,0.11-10.16,1.14-14.46,3.15c-5.63,2.63-8.68,6.36-8.96,10.11v16.19
			c-0.22,3.04,1.38,6.11,4.95,8.61c2.26,1.58,5.07,2.75,8.15,3.54C372.58,242.88,382.21,242.28,389.52,238.87z"/>
		<g>
			<g>
				<path class="st44" d="M397.72,211.98v16.19c-0.27,3.76-3.33,7.49-8.96,10.11c-7.31,3.41-16.94,4.01-24.75,2.03v-28.33H397.72z"
					/>
				<path class="st45" d="M350.91,228.17v-16.19h13.1v28.33c-3.08-0.78-5.89-1.96-8.15-3.54
					C352.29,234.28,350.69,231.22,350.91,228.17z"/>
			</g>
			<path class="st46" d="M392.77,203.37c3.57,2.5,5.17,5.56,4.95,8.61h-23.39v-13.26C381.28,198.56,388.16,200.14,392.77,203.37z"/>
			<g>
				<path class="st47" d="M397.72,211.98c-0.27,3.76-3.33,7.49-8.96,10.11c-7.31,3.41-16.94,4.01-24.75,2.03l10.31-12.14H397.72z"/>
				<path class="st33" d="M350.91,211.98c0.28-3.76,3.33-7.49,8.96-10.11c4.29-2,9.4-3.03,14.46-3.15v13.26l-10.31,12.14
					c-3.08-0.78-5.89-1.95-8.15-3.54C352.29,218.09,350.69,215.03,350.91,211.98z"/>
			</g>
		</g>
	</g>
	<g>
		<path class="st31" d="M192.95,246.57c3.18,1.87,9.05,2.09,13.12,0.5c2.24-0.88,3.42-2.12,3.53-3.38h0.05v-35.18h-0.01
			c0.09-1.02-0.55-2.04-1.97-2.88c-3.18-1.87-9.05-2.09-13.12-0.5c-2.24,0.88-3.46,2.12-3.57,3.38h-0.01v35.18h0.05
			C190.93,244.71,191.53,245.73,192.95,246.57z"/>
		<g>
			<path class="st48" d="M190.22,207.93h18.69v35.18h-0.05c-0.11,1.26-1.29,2.5-3.53,3.38c-4.06,1.59-9.94,1.36-13.12-0.5
				c-1.42-0.83-2.03-1.86-1.94-2.88h-0.05V207.93z"/>
			<path class="st49" d="M193.8,204.55c-4.06,1.59-4.78,4.39-1.6,6.26c3.18,1.87,9.05,2.09,13.12,0.5c4.06-1.59,4.78-4.39,1.6-6.25
				C203.74,203.19,197.86,202.96,193.8,204.55z"/>
		</g>
	</g>
	<g>
		<path class="st31" d="M100.47,175.06c-3.18-1.87-9.05-2.09-13.12-0.5c-2.68,1.05-3.9,2.63-3.5,4.12h-0.08v45.91h0.05
			c-0.09,1.02,0.51,2.04,1.94,2.88c3.18,1.87,9.05,2.09,13.12,0.5c2.24-0.88,3.42-2.12,3.53-3.38h0.05v-45.91h-0.21
			C102.8,177.43,102.24,176.1,100.47,175.06z"/>
		<g>
			<path class="st37" d="M83.02,178.09h18.69V224h-0.05c-0.11,1.26-1.29,2.5-3.53,3.38c-4.06,1.59-9.94,1.36-13.12-0.5
				c-1.43-0.84-2.03-1.86-1.94-2.88h-0.05V178.09z"/>
			<path class="st36" d="M86.61,173.98c-4.06,1.59-4.78,4.39-1.6,6.26c3.18,1.87,9.05,2.09,13.12,0.5c4.06-1.59,4.78-4.39,1.6-6.25
				C96.54,172.61,90.67,172.39,86.61,173.98z"/>
		</g>
	</g>
	<g>
		<path class="st31" d="M165.69,204.73c3.18,1.87,9.05,2.09,13.12,0.5c2.24-0.88,3.42-2.12,3.54-3.38h0.05v-22.89h-0.01
			c0.09-1.02-0.55-2.04-1.97-2.88c-3.18-1.87-9.05-2.09-13.12-0.5c-2.24,0.88-3.46,2.12-3.57,3.38h-0.01v22.89h0.05
			C163.66,202.87,164.26,203.89,165.69,204.73z"/>
		<g>
			<path class="st44" d="M162.95,178.38h18.69v22.89h-0.05c-0.11,1.25-1.29,2.5-3.54,3.38c-4.06,1.59-9.94,1.36-13.12-0.5
				c-1.42-0.84-2.03-1.86-1.94-2.88h-0.05V178.38z"/>
			<path class="st47" d="M166.54,175c-4.06,1.59-4.78,4.39-1.6,6.26c3.18,1.87,9.05,2.09,13.12,0.5c4.06-1.59,4.78-4.39,1.6-6.25
				C176.47,173.64,170.6,173.41,166.54,175z"/>
		</g>
	</g>
	<g>
		<path class="st31" d="M341.13,236.38c-3.66-2.56-10.4-2.87-15.07-0.69c-2.58,1.2-3.98,2.91-4.1,4.63h-0.01v31.38h0.06
			c-0.1,1.39,0.59,2.8,2.22,3.94c3.66,2.56,10.4,2.87,15.07,0.69c2.58-1.2,3.94-2.91,4.06-4.63h0.06v-31.38h-0.01
			C343.49,238.93,342.76,237.53,341.13,236.38z"/>
		<g>
			<path class="st39" d="M320.91,239.52h21.47v31.38h-0.06c-0.13,1.72-1.48,3.43-4.06,4.63c-4.67,2.18-11.41,1.87-15.07-0.69
				c-1.64-1.14-2.33-2.55-2.23-3.94h-0.06V239.52z"/>
			<path class="st50" d="M325.03,234.89c-4.67,2.18-5.49,6.02-1.83,8.58c3.65,2.56,10.4,2.87,15.07,0.69
				c4.67-2.18,5.49-6.02,1.84-8.58C336.44,233.02,329.7,232.71,325.03,234.89z"/>
		</g>
	</g>
	<g>
		<path class="st31" d="M361.52,279.63c3.41,2.39,9.71,2.68,14.07,0.64c2.41-1.12,3.67-2.72,3.79-4.32h0.05l0.41-19.92h-0.01
			c0.09-1.3-0.59-2.61-2.12-3.68c-3.41-2.39-9.71-2.68-14.07-0.64c-2.41,1.12-3.71,2.72-3.83,4.32h-0.02l-0.41,19.92h0.05
			C359.35,277.25,360,278.56,361.52,279.63z"/>
		<g>
			<path class="st48" d="M358.84,255.28h20.04l-0.41,19.92h-0.05c-0.12,1.61-1.38,3.2-3.79,4.32c-4.36,2.03-10.66,1.74-14.07-0.64
				c-1.53-1.07-2.17-2.38-2.08-3.68h-0.05L358.84,255.28z"/>
			<path class="st49" d="M362.69,250.95c-4.36,2.03-5.12,5.62-1.71,8.01c3.41,2.39,9.71,2.67,14.07,0.64c4.36-2.03,5.12-5.62,1.71-8
				C373.34,249.21,367.04,248.92,362.69,250.95z"/>
		</g>
	</g>
	<g>
		<path class="st31" d="M484.57,445.48l-9.12-5.31l0.03-0.02c-0.01-6.56-2.22-11.16-5.69-13.13c0.01,0,0.02,0,0.02,0l-12-6.93
			c-0.89-6.4-3.59-10.93-7.42-13.1l0-0.01l-10.03-5.9c-3.86-2.13-8.86-1.88-14.32,1.27c-12.24,7.07-22.17,26.03-22.17,42.36
			c0,8.82,2.9,15.06,7.49,17.83l9.53,5.59c3.96,2.61,9.25,2.55,15.07-0.81c0.66-0.38,1.3-0.8,1.95-1.24l1.27,0.73l0.01-0.03
			c2.87,1.75,6.64,1.66,10.79-0.72l18.32,10.61c0.01-0.01,0.02-0.01,0.03-0.01c9-5.2,16.3-19.14,16.3-31.14c0-0.02,0-0.04,0-0.06
			L484.57,445.48z"/>
		<g>
			<path class="st51" d="M449.55,406.33l-10.03-5.9l0,0c-3.86-2.13-8.86-1.88-14.32,1.27c-12.24,7.07-22.17,26.03-22.17,42.36
				c0,8.82,2.9,15.06,7.49,17.83l0,0l10.53,6.18l1.03-5.74c1.02-0.4,2.06-0.89,3.12-1.5c12.24-7.07,22.17-26.03,22.17-42.36
				c0-3.59-0.48-6.76-1.36-9.44l2.8,0.61L449.55,406.33z"/>
			<path class="st52" d="M457.29,424.3c0,16.32-9.93,35.29-22.17,42.36c-12.24,7.07-22.17-0.43-22.17-16.76
				c0-16.32,9.92-35.29,22.17-42.36C447.37,400.47,457.29,407.98,457.29,424.3z"/>
			<path class="st53" d="M455.37,430.95l-14.47-1.22l-9.99-5.76c-4.8,6.55-8.02,15.36-8.02,23.33c0,6.59,2.2,11.22,5.67,13.2
				l9.78,5.64l2.27-6.71l-0.71-0.28C447.96,454.04,454.5,442.01,455.37,430.95z"/>
			<path class="st54" d="M455.37,430.95c0.07-0.83,13.59-4.59,13.59-4.59l-19.51-11.27c-2.8-1.42-6.38-1.17-10.27,1.07
				c-3.02,1.75-5.84,4.49-8.27,7.81l19.17,11.07L455.37,430.95z"/>
			<path class="st55" d="M432.87,453.07c0,11.99,7.28,17.5,16.27,12.33v-21.79l-8.24-13.88
				C436.1,436.28,432.87,445.09,432.87,453.07z"/>
			<path class="st56" d="M465.46,434.25c0-0.02,0-0.04,0-0.06l-16.32,9.42v21.79c0.01,0,0.02-0.01,0.03-0.01
				C458.16,460.19,465.46,446.25,465.46,434.25z"/>
			<path class="st36" d="M483.78,444.85c0-0.02,0-0.04,0-0.06l-16.32,9.42V476c0.01-0.01,0.02-0.01,0.03-0.01
				C476.48,470.79,483.78,456.85,483.78,444.85z"/>
			<polygon class="st57" points="467.45,454.21 449.13,443.61 449.13,465.4 467.45,476 			"/>
			<polygon class="st58" points="483.78,444.85 465.45,434.18 449.13,443.61 467.45,454.21 			"/>
			<path class="st47" d="M458.34,427.24c-3.02,1.74-5.84,4.49-8.27,7.8l8.24,13.88l16.32-9.42
				C474.61,427.54,467.33,422.05,458.34,427.24z"/>
			<polygon class="st59" points="458.32,448.92 449.13,443.61 440.89,429.73 450.08,435.04 			"/>
		</g>
	</g>
	<g>
		<path class="st31" d="M93.64,432.42L93.64,432.42c-0.1-5.23-4-10.66-11.5-14.81l-0.53-33.07l0.07-0.04
			c-0.03-0.01-0.05-0.03-0.07-0.04c-13.89-7.59-34.64-7.96-46.35-0.83c-0.01,0.01-0.02,0.02-0.04,0.02l0.69,47.04
			c-5.38,3.29-7.89,7.6-7.69,12.03l-0.01,0l0.35,14.89c0.09,5.28,4.06,10.75,11.69,14.92c9.23,5.04,21.46,6.88,32.08,5.47
			c5.37-0.71,10.34-2.24,14.27-4.64c5.06-3.08,7.6-7.07,7.74-11.21L93.64,432.42z"/>
		<g>
			<path class="st53" d="M78.7,444.45l-7.74,17.53l0.35,15.2c-10.62,1.41-22.86-0.43-32.08-5.47c-7.63-4.17-11.6-9.64-11.69-14.92
				l-0.35-14.89l9.2,1.62l-0.13,1C47.28,438.43,65.35,438.47,78.7,444.45z"/>
			<path class="st51" d="M78.7,444.45c1,0.45,13.91-12.83,13.91-12.83l0.7,29.72c-0.13,4.14-2.68,8.12-7.74,11.2
				c-3.93,2.4-8.9,3.92-14.27,4.64l-0.69-29.19L78.7,444.45z"/>
			<path class="st55" d="M38.87,456.51c-13.88-7.58-15.65-19.5-3.99-26.63l25.23,13.79l10.85,18.32
				C60.34,463.39,48.09,461.56,38.87,456.51z"/>
			<path class="st56" d="M81.27,430.69c0.03,0.01,0.05,0.03,0.07,0.04l-21.23,12.93l-25.23-13.79c0.01-0.01,0.02-0.01,0.04-0.02
				C46.62,422.72,67.37,423.1,81.27,430.69z"/>
			<path class="st36" d="M80.58,383.65c-13.89-7.59-34.64-7.96-46.35-0.83c-0.01,0.01-0.02,0.02-0.04,0.02l25.23,13.79l21.23-12.93
				C80.63,383.68,80.61,383.66,80.58,383.65z"/>
			<polygon class="st57" points="59.42,396.62 60.11,443.66 34.88,429.88 34.19,382.84 			"/>
			<polygon class="st58" points="80.58,383.65 81.34,430.73 60.11,443.66 59.42,396.62 			"/>
			<path class="st52" d="M84.88,443.36c-3.93,2.39-8.89,3.92-14.26,4.63l-10.85-18.32L81,416.74
				C94.82,424.33,96.56,436.24,84.88,443.36z"/>
			<polygon class="st60" points="59.77,429.67 60.11,443.66 70.96,461.98 70.62,447.99 			"/>
		</g>
	</g>
	<g>
		<path class="st31" d="M157.52,247c3.41,1.94,9.71,2.18,14.07,0.52c2.41-0.91,3.67-2.21,3.79-3.51h0.05l0.41-16.19h-0.01
			c0.09-1.06-0.59-2.12-2.12-2.99c-3.41-1.94-9.71-2.18-14.07-0.52c-2.41,0.91-3.71,2.21-3.83,3.51h-0.02l-0.41,16.19h0.05
			C155.35,245.07,156,246.14,157.52,247z"/>
		<g>
			<path class="st48" d="M154.84,227.21h20.04l-0.41,16.19h-0.05c-0.12,1.31-1.38,2.6-3.79,3.51c-4.36,1.65-10.66,1.42-14.07-0.52
				c-1.53-0.87-2.17-1.93-2.08-2.99h-0.05L154.84,227.21z"/>
			<path class="st49" d="M158.69,223.7c-4.36,1.65-5.12,4.57-1.71,6.51c3.41,1.94,9.71,2.17,14.07,0.52
				c4.36-1.65,5.12-4.56,1.71-6.5C169.34,222.28,163.04,222.05,158.69,223.7z"/>
		</g>
	</g>
	<g>
		<path class="st31" d="M398.47,293.06c-3.18-1.87-9.05-2.09-13.12-0.5c-2.68,1.05-3.9,2.63-3.5,4.12h-0.08l-0.01,19.03h0.05
			c-0.09,1.02,0.51,2.04,1.94,2.88c3.18,1.87,9.05,2.09,13.12,0.5c2.24-0.88,3.42-2.12,3.53-3.38h0.05l0.01-19.03h-0.2
			C400.8,295.43,400.24,294.1,398.47,293.06z"/>
		<g>
			<path class="st37" d="M381.02,296.09h18.69l-0.01,19.03h-0.05c-0.11,1.26-1.29,2.5-3.53,3.38c-4.06,1.59-9.94,1.36-13.12-0.5
				c-1.43-0.84-2.03-1.86-1.94-2.88h-0.05L381.02,296.09z"/>
			<path class="st36" d="M384.61,291.98c-4.06,1.59-4.78,4.39-1.6,6.26c3.18,1.87,9.05,2.09,13.12,0.5c4.06-1.59,4.78-4.39,1.6-6.26
				C394.54,290.61,388.67,290.39,384.61,291.98z"/>
		</g>
	</g>
	<g>
		<path class="st31" d="M208.47,146.06c-3.18-1.87-9.05-2.09-13.12-0.5c-2.68,1.05-3.9,2.63-3.5,4.12h-0.08l-0.01,19.03h0.05
			c-0.09,1.02,0.51,2.04,1.94,2.88c3.18,1.87,9.05,2.09,13.12,0.5c2.24-0.88,3.42-2.12,3.53-3.38h0.05l0.01-19.03h-0.21
			C210.8,148.43,210.24,147.1,208.47,146.06z"/>
		<g>
			<path class="st37" d="M191.02,149.09h18.69l-0.01,19.03h-0.05c-0.11,1.26-1.29,2.5-3.53,3.38c-4.06,1.59-9.94,1.36-13.12-0.5
				c-1.43-0.84-2.03-1.86-1.94-2.88h-0.05L191.02,149.09z"/>
			<path class="st36" d="M194.61,144.98c-4.06,1.59-4.78,4.39-1.6,6.26c3.18,1.87,9.05,2.09,13.12,0.5c4.06-1.59,4.78-4.39,1.6-6.25
				C204.54,143.61,198.67,143.39,194.61,144.98z"/>
		</g>
	</g>
	<g>
		<polygon class="st31" points="414.15,357.1 403.47,386.12 407.74,388.49 408.96,387.79 408.72,395.62 413,398 424.11,391.58 
			424.42,378.87 429.97,375.66 418.43,359.48 		"/>
		<g>
			<polygon class="st41" points="407.97,395.04 412.25,397.42 412.55,384.7 408.27,382.32 			"/>
			<polygon class="st42" points="429.22,375.07 417.68,358.89 406.99,387.91 412.55,384.7 412.25,397.42 423.36,391 423.67,378.28 
							"/>
			<polygon class="st43" points="417.68,358.89 413.4,356.52 402.72,385.53 406.99,387.91 			"/>
		</g>
	</g>
	<g>
		<path class="st31" d="M61.69,244.73c3.18,1.87,9.05,2.09,13.12,0.5c2.24-0.88,3.42-2.12,3.54-3.38h0.05v-36.89h-0.01
			c0.09-1.02-0.55-2.04-1.97-2.88c-3.18-1.87-9.05-2.09-13.12-0.5c-2.24,0.88-3.46,2.12-3.57,3.38H59.7v36.89h0.05
			C59.66,242.87,60.26,243.89,61.69,244.73z"/>
		<g>
			<path class="st44" d="M58.95,204.38h18.69v36.89h-0.05c-0.11,1.25-1.29,2.5-3.54,3.38c-4.06,1.59-9.94,1.36-13.12-0.5
				c-1.42-0.84-2.03-1.86-1.94-2.88h-0.05V204.38z"/>
			<path class="st47" d="M62.54,201c-4.06,1.59-4.78,4.39-1.6,6.26c3.18,1.87,9.05,2.09,13.12,0.5c4.06-1.59,4.78-4.39,1.6-6.25
				C72.47,199.64,66.6,199.41,62.54,201z"/>
		</g>
	</g>
	<g>
		<path class="st31" d="M48.13,340.38c-3.66-2.56-10.4-2.87-15.07-0.69c-2.58,1.2-3.98,2.91-4.1,4.63h-0.01v22.38h0.06
			c-0.1,1.39,0.59,2.8,2.22,3.94c3.66,2.56,10.4,2.87,15.07,0.69c2.58-1.2,3.94-2.91,4.06-4.63h0.06v-22.38h-0.01
			C50.49,342.93,49.76,341.53,48.13,340.38z"/>
		<g>
			<path class="st39" d="M27.91,343.52h21.47v22.38h-0.06c-0.13,1.72-1.48,3.43-4.06,4.63c-4.67,2.18-11.42,1.87-15.07-0.69
				c-1.64-1.14-2.33-2.55-2.23-3.94h-0.06V343.52z"/>
			<path class="st50" d="M32.03,338.89c-4.67,2.18-5.49,6.02-1.84,8.58c3.65,2.56,10.4,2.87,15.07,0.69
				c4.67-2.18,5.49-6.02,1.84-8.58C43.44,337.02,36.7,336.71,32.03,338.89z"/>
		</g>
	</g>
	<g>
		<path class="st31" d="M458.13,358.38c-3.66-2.56-10.4-2.87-15.07-0.69c-2.58,1.2-3.98,2.91-4.1,4.63h-0.01v22.38h0.06
			c-0.1,1.39,0.59,2.8,2.22,3.94c3.66,2.56,10.4,2.87,15.07,0.69c2.58-1.2,3.94-2.91,4.06-4.63h0.06v-22.38h-0.01
			C460.49,360.93,459.76,359.53,458.13,358.38z"/>
		<g>
			<path class="st39" d="M437.91,361.52h21.47v22.38h-0.06c-0.13,1.72-1.48,3.43-4.06,4.63c-4.67,2.18-11.41,1.87-15.07-0.69
				c-1.64-1.14-2.33-2.55-2.23-3.94h-0.06V361.52z"/>
			<path class="st50" d="M442.03,356.89c-4.67,2.18-5.49,6.02-1.84,8.58c3.65,2.56,10.4,2.87,15.07,0.69
				c4.67-2.18,5.49-6.02,1.84-8.58C453.44,355.02,446.7,354.71,442.03,356.89z"/>
		</g>
	</g>
	<g>
		<path class="st31" d="M47.47,312.06c-3.18-1.87-9.05-2.09-13.12-0.5c-2.68,1.05-3.9,2.63-3.5,4.12h-0.08l-0.01,12.03h0.05
			c-0.09,1.02,0.51,2.04,1.94,2.88c3.18,1.87,9.05,2.09,13.12,0.5c2.24-0.88,3.42-2.12,3.53-3.38h0.05l0.01-12.03h-0.2
			C49.8,314.43,49.24,313.1,47.47,312.06z"/>
		<g>
			<path class="st37" d="M30.02,315.09h18.69l-0.01,12.03h-0.05c-0.11,1.26-1.29,2.5-3.53,3.38c-4.06,1.59-9.94,1.36-13.12-0.5
				c-1.43-0.84-2.03-1.86-1.94-2.88h-0.05L30.02,315.09z"/>
			<path class="st36" d="M33.61,310.98c-4.06,1.59-4.78,4.39-1.6,6.26c3.18,1.87,9.05,2.09,13.12,0.5c4.06-1.59,4.78-4.39,1.6-6.26
				C43.54,309.61,37.67,309.39,33.61,310.98z"/>
		</g>
	</g>
	<g>
		<polygon class="st31" points="38.22,269.11 29.35,293.19 32.9,295.16 33.91,294.58 33.71,302.74 37.27,304.72 46.49,299.39 
			46.74,287.18 51.35,284.51 41.77,271.08 		"/>
		<g>
			<polygon class="st32" points="33.09,302.26 36.64,304.23 36.89,292.02 33.34,290.04 			"/>
			<polygon class="st33" points="50.73,284.03 41.15,270.6 32.28,294.68 36.89,292.02 36.64,304.23 45.87,298.91 46.12,286.69 			
				"/>
			<polygon class="st34" points="41.15,270.6 37.6,268.62 28.73,292.71 32.28,294.68 			"/>
		</g>
	</g>
</g>
</svg>
